<?xml version="1.0" encoding="UTF-8"?>
<svg width="930px" height="736px" viewBox="0 0 930 736" version="1.1" xmlns="http://www.w3.org/2000/svg" xmlns:xlink="http://www.w3.org/1999/xlink">
    <!-- Generator: Sketch 48.2 (47327) - http://www.bohemiancoding.com/sketch -->
    <title>mi-logo-2017</title>
    <desc>Created with Sketch.</desc>
    <defs></defs>
    <g id="Page-1" stroke="none" stroke-width="1" fill="none" fill-rule="evenodd" stroke-linecap="round" stroke-linejoin="round">
        <g id="mi-logo-2017" transform="translate(5.000000, 4.000000)" fill="#FFFFFF">
            <g id="Group" stroke="#000000" stroke-width="8.33">
                <polygon id="Shape" points="153.545 266.48 0.116 177.898 306.975 0.732 460.405 89.315"></polygon>
                <polygon id="Shape" points="460.405 89.315 613.834 0.732 920.694 177.898 767.264 266.48"></polygon>
                <polygon id="Shape" points="460.405 443.646 767.264 266.48 460.405 89.315 153.545 266.48"></polygon>
                <polygon id="Shape" points="460.405 89.315 460.405 372.78 153.545 549.945 153.545 266.48"></polygon>
                <polygon id="Shape" points="767.264 549.945 767.264 266.48 460.405 89.315 460.405 372.78 767.264 549.945"></polygon>
            </g>
            <g id="Group" transform="translate(399.000000, 124.000000)" stroke="#FF0090" stroke-width="6.25">
                <polygon id="Shape" points="0.033 36.181 61.405 0.748 153.463 53.898 92.091 89.331"></polygon>
                <polygon id="Shape" points="92.091 89.331 92.091 231.063 153.463 195.63 153.463 53.898"></polygon>
                <polygon id="Shape" points="0.033 36.181 92.091 89.331 92.091 231.063 0.033 177.913 0.033 36.181"></polygon>
            </g>
            <g id="Group" transform="translate(521.000000, 213.000000)" stroke="#FF0090" stroke-width="6.25">
                <polygon id="Shape" points="0.777 18.047 31.463 0.331 62.148 18.047 31.463 35.764"></polygon>
                <polygon id="Shape" points="31.463 35.764 31.463 177.496 62.148 159.78 62.148 18.047 31.463 35.764"></polygon>
                <polygon id="Shape" points="0.777 18.047 31.463 35.764 31.463 177.496 0.777 159.78 0.777 18.047"></polygon>
            </g>
            <g id="Group" transform="translate(552.000000, 231.000000)" stroke="#FF0090" stroke-width="6.25">
                <polygon id="Shape" points="0.463 17.764 31.148 0.047 92.52 35.48 61.834 53.197 0.463 17.764"></polygon>
                <polygon id="Shape" points="61.834 53.197 61.834 194.929 92.52 177.213 92.52 35.48 61.834 53.197"></polygon>
                <polygon id="Shape" points="0.463 17.764 61.834 53.197 61.834 194.929 0.463 159.496"></polygon>
            </g>
            <g id="Group" transform="translate(337.000000, 195.000000)" stroke="#FF0090" stroke-width="6.25">
                <polygon id="Shape" points="0.661 36.047 62.033 0.614 123.405 36.047 62.033 71.48"></polygon>
                <polygon id="Shape" points="62.033 71.48 62.033 213.213 123.405 177.78 123.405 36.047 62.033 71.48"></polygon>
                <polygon id="Shape" points="0.661 36.047 62.033 71.48 62.033 213.213 0.661 177.78 0.661 36.047"></polygon>
            </g>
            <g id="Group" transform="translate(491.000000, 266.000000)" stroke="#FF0090" stroke-width="6.25">
                <polygon id="Shape" points="0.091 18.197 30.777 0.48 92.148 35.913 61.463 53.63 0.091 18.197"></polygon>
                <polygon id="Shape" points="61.463 53.63 61.463 195.362 92.148 177.646 92.148 35.913 61.463 53.63"></polygon>
                <polygon id="Shape" points="0.091 18.197 61.463 53.63 61.463 195.362 0.091 159.929"></polygon>
            </g>
            <g id="Group" transform="translate(429.000000, 301.000000)" stroke="#FF0090" stroke-width="6.25">
                <polygon id="Shape" points="0.719 18.63 31.405 0.913 92.777 36.346 62.091 54.063"></polygon>
                <polygon id="Shape" points="62.091 54.063 62.091 195.795 92.777 178.079 92.777 36.346 62.091 54.063"></polygon>
                <polygon id="Shape" points="0.719 18.63 62.091 54.063 62.091 195.795 0.719 160.362"></polygon>
            </g>
            <g id="Group" transform="translate(306.000000, 301.000000)" stroke="#FF0090" stroke-width="6.25">
                <polygon id="Shape" points="0.975 18.63 31.661 0.913 93.033 36.346 62.347 54.063 0.975 18.63"></polygon>
                <polygon id="Shape" points="62.347 54.063 62.347 195.795 93.033 178.079 93.033 36.346 62.347 54.063"></polygon>
                <polygon id="Shape" points="0.975 18.63 62.347 54.063 62.347 195.795 0.975 160.362 0.975 18.63"></polygon>
            </g>
            <g id="Group" transform="translate(552.000000, 337.000000)" stroke="#FF0090" stroke-width="6.25">
                <polygon id="Shape" points="0.463 18.063 31.148 0.346 61.834 18.063 31.148 35.78"></polygon>
                <polygon id="Shape" points="31.148 35.78 31.148 177.512 61.834 159.795 61.834 18.063"></polygon>
                <polygon id="Shape" points="0.463 18.063 31.148 35.78 31.148 177.512 0.463 159.795"></polygon>
            </g>
            <g id="Group" transform="translate(583.000000, 301.000000)" stroke="#FF0090" stroke-width="6.25">
                <polygon id="Shape" points="0.148 36.346 61.52 0.913 92.206 18.63 30.834 54.063"></polygon>
                <polygon id="Shape" points="30.834 54.063 30.834 195.795 92.206 160.362 92.206 18.63"></polygon>
                <polygon id="Shape" points="0.148 36.346 30.834 54.063 30.834 195.795 0.148 178.079 0.148 36.346"></polygon>
            </g>
            <g id="Group" transform="translate(613.000000, 355.000000)" stroke="#FF0090" stroke-width="6.25">
                <polygon id="Shape" points="0.834 35.496 62.206 0.063 123.578 35.496 62.206 70.929"></polygon>
                <polygon id="Shape" points="62.206 70.929 62.206 212.661 123.578 177.228 123.578 35.496"></polygon>
                <polygon id="Shape" points="0.834 35.496 62.206 70.929 62.206 212.661 0.834 177.228"></polygon>
            </g>
            <g id="Group" transform="translate(276.000000, 248.000000)" stroke="#FF0090" stroke-width="6.25">
                <polygon id="Shape" points="0.289 18.48 30.975 0.764 61.661 18.48 30.975 36.197"></polygon>
                <polygon id="Shape" points="30.975 36.197 30.975 177.929 61.661 160.213 61.661 18.48 30.975 36.197"></polygon>
                <polygon id="Shape" points="0.289 18.48 30.975 36.197 30.975 177.929 0.289 160.213 0.289 18.48"></polygon>
            </g>
            <g id="Group" transform="translate(306.000000, 301.000000)" stroke="#FF0090" stroke-width="6.25">
                <polygon id="Shape" points="0.975 18.63 31.661 0.913 62.347 18.63 31.661 36.346 0.975 18.63"></polygon>
                <polygon id="Shape" points="31.661 36.346 31.661 178.079 62.347 160.362 62.347 18.63"></polygon>
                <polygon id="Shape" points="0.975 18.63 31.661 36.346 31.661 178.079 0.975 160.362 0.975 18.63"></polygon>
            </g>
            <g id="Group" transform="translate(337.000000, 284.000000)" stroke="#FF0090" stroke-width="6.25">
                <polygon id="Shape" points="0.661 53.346 92.719 0.197 154.091 35.63 62.033 88.78"></polygon>
                <polygon id="Shape" points="62.033 88.78 62.033 230.512 154.091 177.362 154.091 35.63"></polygon>
                <polygon id="Shape" points="0.661 53.346 62.033 88.78 62.033 230.512 0.661 195.079 0.661 53.346"></polygon>
            </g>
            <g id="Group" transform="translate(460.000000, 337.000000)" stroke="#FF0090" stroke-width="6.25">
                <polygon id="Shape" points="0.405 35.78 61.777 0.346 153.834 53.496 92.463 88.929"></polygon>
                <polygon id="Shape" points="92.463 88.929 92.463 230.661 153.834 195.228 153.834 53.496"></polygon>
                <polygon id="Shape" points="0.405 35.78 92.463 88.929 92.463 230.661 0.405 177.512"></polygon>
            </g>
            <g id="Group" transform="translate(429.000000, 266.000000)" stroke="#FF0090" stroke-width="6.25">
                <polygon id="Shape" points="0.719 18.197 31.405 0.48 62.091 18.197 31.405 35.913"></polygon>
                <polygon id="Shape" points="31.405 35.913 31.405 177.646 62.091 159.929 62.091 18.197"></polygon>
                <polygon id="Shape" points="0.719 18.197 31.405 35.913 31.405 177.646 0.719 159.929"></polygon>
            </g>
            <g id="Group" transform="translate(460.000000, 355.000000)" stroke="#FF0090" stroke-width="6.25">
                <polygon id="Shape" points="0.405 17.78 31.091 0.063 92.463 35.496 61.777 53.213"></polygon>
                <polygon id="Shape" points="61.777 53.213 61.777 194.945 92.463 177.228 92.463 35.496"></polygon>
                <polygon id="Shape" points="0.405 17.78 61.777 53.213 61.777 194.945 0.405 159.512"></polygon>
            </g>
            <g id="Group" transform="translate(399.000000, 390.000000)" stroke="#FF0090" stroke-width="6.25">
                <polygon id="Shape" points="0.033 18.213 30.719 0.496 92.091 35.929 61.405 53.646"></polygon>
                <polygon id="Shape" points="61.405 53.646 61.405 195.378 92.091 177.661 92.091 35.929"></polygon>
                <polygon id="Shape" points="0.033 18.213 61.405 53.646 61.405 195.378 0.033 159.945"></polygon>
            </g>
            <g id="Group" transform="translate(460.000000, 425.000000)" stroke="#FF0090" stroke-width="6.25">
                <polygon id="Shape" points="0.405 18.646 31.091 0.929 61.777 18.646 31.091 36.362"></polygon>
                <polygon id="Shape" points="31.091 36.362 31.091 178.094 61.777 160.378 61.777 18.646"></polygon>
                <polygon id="Shape" points="0.405 18.646 31.091 36.362 31.091 178.094 0.405 160.378"></polygon>
            </g>
            <g id="Group" transform="translate(521.000000, 390.000000)" stroke="#FF0090" stroke-width="6.25">
                <polygon id="Shape" points="0.777 53.646 92.834 0.496 154.206 35.929 62.148 89.079"></polygon>
                <polygon id="Shape" points="62.148 89.079 62.148 230.811 154.206 177.661 154.206 35.929"></polygon>
                <polygon id="Shape" points="0.777 53.646 62.148 89.079 62.148 230.811 0.777 195.378"></polygon>
            </g>
            <g id="Group" transform="translate(399.000000, 425.000000)" stroke="#FF0090" stroke-width="6.25">
                <polygon id="Shape" points="0.033 18.646 30.719 0.929 92.091 36.362 61.405 54.079"></polygon>
                <polygon id="Shape" points="61.405 54.079 61.405 195.811 92.091 178.094 92.091 36.362"></polygon>
                <polygon id="Shape" points="0.033 18.646 61.405 54.079 61.405 195.811 0.033 160.378"></polygon>
            </g>
            <g id="Group" transform="translate(214.000000, 301.000000)" stroke="#FF0090" stroke-width="6.25">
                <polygon id="Shape" points="0.917 36.346 62.289 0.913 154.347 54.063 92.975 89.496"></polygon>
                <polygon id="Shape" points="92.975 89.496 92.975 231.228 154.347 195.795 154.347 54.063 92.975 89.496"></polygon>
                <polygon id="Shape" points="0.917 36.346 92.975 89.496 92.975 231.228 0.917 178.079 0.917 36.346"></polygon>
            </g>
            <g id="Group" transform="translate(306.000000, 390.000000)" stroke="#FF0090" stroke-width="6.25">
                <polygon id="Shape" points="0.975 35.929 62.347 0.496 93.033 18.213 31.661 53.646 0.975 35.929"></polygon>
                <polygon id="Shape" points="31.661 53.646 31.661 195.378 93.033 159.945 93.033 18.213"></polygon>
                <polygon id="Shape" points="0.975 35.929 31.661 53.646 31.661 195.378 0.975 177.661 0.975 35.929"></polygon>
            </g>
            <g id="Group" transform="translate(184.000000, 372.000000)" stroke="#FF0090" stroke-width="6.25">
                <polygon id="Shape" points="0.231 18.496 30.917 0.78 92.289 36.213 61.603 53.929"></polygon>
                <polygon id="Shape" points="61.603 53.929 61.603 195.661 92.289 177.945 92.289 36.213"></polygon>
                <polygon id="Shape" points="0.231 18.496 61.603 53.929 61.603 195.661 0.231 160.228"></polygon>
            </g>
            <g id="Group" transform="translate(245.000000, 408.000000)" stroke="#FF0090" stroke-width="6.25">
                <polygon id="Shape" points="0.603 17.929 31.289 0.213 92.661 35.646 61.975 53.362 0.603 17.929"></polygon>
                <polygon id="Shape" points="61.975 53.362 61.975 195.094 92.661 177.378 92.661 35.646 61.975 53.362"></polygon>
                <polygon id="Shape" points="0.603 17.929 61.975 53.362 61.975 195.094 0.603 159.661"></polygon>
            </g>
            <g id="Group" transform="translate(306.000000, 372.000000)" stroke="#FF0090" stroke-width="6.25">
                <polygon id="Shape" points="0.975 53.929 93.033 0.78 154.405 36.213 62.347 89.362 0.975 53.929"></polygon>
                <polygon id="Shape" points="62.347 89.362 62.347 231.094 154.405 177.945 154.405 36.213"></polygon>
                <polygon id="Shape" points="0.975 53.929 62.347 89.362 62.347 231.094 0.975 195.661 0.975 53.929"></polygon>
            </g>
            <g id="Group" transform="translate(429.000000, 443.000000)" stroke="#FF0090" stroke-width="6.25">
                <polygon id="Shape" points="0.719 18.362 31.405 0.646 62.091 18.362 31.405 36.079"></polygon>
                <polygon id="Shape" points="31.405 36.079 31.405 177.811 62.091 160.094 62.091 18.362"></polygon>
                <polygon id="Shape" points="0.719 18.362 31.405 36.079 31.405 177.811 0.719 160.094"></polygon>
            </g>
            <g id="Group" transform="translate(460.000000, 443.000000)" stroke="#FF0090" stroke-width="6.25">
                <polygon id="Shape" points="0.405 36.079 61.777 0.646 123.148 36.079 61.777 71.512"></polygon>
                <polygon id="Shape" points="61.777 71.512 61.777 213.244 123.148 177.811 123.148 36.079"></polygon>
                <polygon id="Shape" points="0.405 36.079 61.777 71.512 61.777 213.244 0.405 177.811"></polygon>
            </g>
            <g id="Group" transform="translate(368.000000, 461.000000)" stroke="#FF0090" stroke-width="6.25">
                <polygon id="Shape" points="0.347 35.795 61.719 0.362 153.777 53.512 92.405 88.945"></polygon>
                <polygon id="Shape" points="92.405 88.945 92.405 230.677 153.777 195.244 153.777 53.512"></polygon>
                <polygon id="Shape" points="0.347 35.795 92.405 88.945 92.405 230.677 0.347 177.528 0.347 35.795"></polygon>
            </g>
            <g id="Group" transform="translate(0.000000, 266.000000)" stroke="#000000" stroke-width="8.33">
                <polygon id="Shape" points="460.405 461.11 767.264 283.945 767.264 0.48 460.405 177.646 460.405 461.11"></polygon>
                <polygon id="Shape" points="153.545 283.945 460.405 461.11 460.405 177.646 153.545 0.48 153.545 283.945"></polygon>
                <polygon id="Shape" points="767.264 0.48 920.694 89.063 613.834 266.228 460.405 177.646 767.264 0.48"></polygon>
                <polygon id="Shape" points="153.545 0.48 0.116 89.063 306.975 266.228 460.405 177.646 153.545 0.48"></polygon>
            </g>
        </g>
    </g>
</svg>